<svg version="1.1" xmlns="http://www.w3.org/2000/svg" width="48" height="48">
    <defs>
        <linearGradient x1="15.90462" y1="14.22989" x2="53.30858" y2="54.9833"
            gradientUnits="userSpaceOnUse" id="color-1">
            <stop offset="0" stop-color="#000000" stop-opacity="0.3"></stop>
            <stop offset="1" stop-color="#000000" stop-opacity="0"></stop>
        </linearGradient>
        <filter id="dropshadow-base">
            <feColorMatrix type="matrix"
                values="0 0 0 0 0  0 0 0 0 0  0 0 0 0 0  0 0 0 .8 0"></feColorMatrix>
            <feOffset dx="0" dy="1"></feOffset>
            <feGaussianBlur stdDeviation="1"></feGaussianBlur>
            <feComposite in="SourceGraphic"></feComposite>
        </filter>
        <filter id="dropshadow-banner" x="-10%" y="-10%" width="120%" height="130%">
            <feColorMatrix type="matrix"
                values="0 0 0 0 0  0 0 0 0 0  0 0 0 0 0  0 0 0 .4 0"></feColorMatrix>
            <feOffset dx="0" dy="1"></feOffset>
            <feGaussianBlur stdDeviation="0.5"></feGaussianBlur>
            <feComposite in="SourceGraphic"></feComposite>
        </filter>
    </defs>
    <g fill="none" fill-rule="nonzero" stroke="none" stroke-width="none" stroke-linecap="butt"
        stroke-linejoin="miter" stroke-miterlimit="10" stroke-dasharray="" stroke-dashoffset="0"
        font-family="none" font-weight="none" font-size="none" text-anchor="none"
        style="mix-blend-mode: normal">
        <path
            d="M2,24c0,-12.15026 9.84974,-22 22,-22c12.15026,0 22,9.84974 22,22c0,12.15026 -9.84974,22 -22,22c-12.15026,0 -22,-9.84974 -22,-22z"
            id="base 1 5" fill="#2196f3" stroke-width="1"></path>
        <path
            d="M18.27252,31.39208c-1.5786,-1.5786 -2.36789,-3.71375 -2.36789,-5.73759c0,-2.02384 0.7893,-4.12864 2.36789,-5.70724l5.72748,-5.71736l5.72748,5.71736l0,0l13.93395,13.93395c-2.50264,4.96994 -6.83424,8.86087 -12.11091,10.78889z"
            fill="url(#color-1)" stroke-width="1"></path>
        <path
            d="M29.72748,19.94725l-5.72748,-5.71736l-5.72748,5.71736c-1.5786,1.5786 -2.3679,3.6834 -2.3679,5.70724c0,2.02384 0.7893,4.159 2.3679,5.7376c1.5786,1.5786 3.65304,2.37802 5.72748,2.37802c2.07444,0 4.14888,-0.79942 5.72748,-2.37802c1.5786,-1.5786 2.3679,-3.71375 2.3679,-5.7376c0,-2.02384 -0.7893,-4.12864 -2.3679,-5.70724zM17.92847,26.02384c0.01012,-2.02384 0.62739,-3.31405 1.78098,-4.45752l4.29055,-4.38162l4.29055,4.42716c1.15359,1.14853 1.77086,2.38814 1.78098,4.41198z"
            fill="none" stroke-width="0"></path>
        <path
            d="M32.09538,25.65449c0,2.02384 -0.7893,4.159 -2.3679,5.7376c-1.5786,1.5786 -3.65304,2.37802 -5.72748,2.37802c-2.07444,0 -4.14888,-0.79942 -5.72748,-2.37802c-1.5786,-1.5786 -2.3679,-3.71375 -2.3679,-5.7376c0,-2.02384 0.7893,-4.12864 2.3679,-5.70724l5.72748,-5.71736l5.72748,5.71736c1.5786,1.5786 2.3679,3.6834 2.3679,5.70724zM30.07153,26.02384c-0.01012,-2.02384 -0.62739,-3.26345 -1.78098,-4.41198l-4.29055,-4.42716l-4.29055,4.38162c-1.15359,1.14347 -1.77086,2.43367 -1.78098,4.45752z"
            fill="#ffffff" stroke-width="0"></path>
        <path
            d="M2,24c0,-12.15026 9.84974,-22 22,-22c12.15026,0 22,9.84974 22,22c0,12.15026 -9.84974,22 -22,22c-12.15026,0 -22,-9.84974 -22,-22z"
            id="base 1 1 1" fill="none" stroke-width="1"></path>
        <g fill="#000000" stroke-width="1" font-family="Roboto, sans-serif" font-weight="400"
            font-size="14" text-anchor="start"></g>
        <rect x="2" y="2" width="44" height="22" fill="none" stroke-width="1"></rect>
        <path d="M2,24v-22h44v22z" fill="none" stroke-width="1"></path>
        <path d="M2,24v-22h44v22z" fill="none" stroke-width="1"></path>
        <path d="M2,24v-22h44v22z" fill="none" stroke-width="1"></path>
        <path d="M2,24v-22h44v22z" fill="none" stroke-width="1"></path>
    </g>
</svg>